<svg xmlns="http://www.w3.org/2000/svg" viewBox="-12.45 -12.45 24.91 24.91" width="24.91" height="24.91"><defs></defs><path d="M8.2 -8.15Q11.55 -4.8 11.55 0Q11.55 4.8 8.2 8.2Q4.8 11.55 0 11.55Q-4.8 11.55 -8.15 8.2Q-11.55 4.8 -11.55 0Q-11.55 -4.8 -8.15 -8.15Q-4.8 -11.55 0 -11.55Q4.8 -11.55 8.2 -8.15Z" transform="matrix(0.36 0 0 0.36 0 0)" fill-rule="evenodd" fill="rgb(255,255,0)" fill-opacity="1"/><path d="M8.2 -8.15Q11.55 -4.8 11.55 0Q11.55 4.8 8.2 8.2Q4.8 11.55 0 11.55Q-4.8 11.55 -8.15 8.2Q-11.55 4.8 -11.55 0Q-11.55 -4.8 -8.15 -8.15Q-4.8 -11.55 0 -11.55Q4.8 -11.55 8.2 -8.15Z" transform="matrix(0.06 0 0 0.91 0 0)" fill-rule="evenodd" fill="rgb(255,255,0)" fill-opacity="1"/><path d="M8.2 -8.15Q11.55 -4.8 11.55 0Q11.55 4.8 8.2 8.2Q4.8 11.55 0 11.55Q-4.8 11.55 -8.15 8.2Q-11.55 4.8 -11.55 0Q-11.55 -4.8 -8.15 -8.15Q-4.8 -11.55 0 -11.55Q4.8 -11.55 8.2 -8.15Z" transform="matrix(0 0.06 -0.91 0 0 0)" fill-rule="evenodd" fill="rgb(255,255,0)" fill-opacity="1"/><path d="M8.2 -8.15Q11.55 -4.8 11.55 0Q11.55 4.8 8.2 8.2Q4.8 11.55 0 11.55Q-4.8 11.55 -8.15 8.2Q-11.55 4.8 -11.55 0Q-11.55 -4.8 -8.15 -8.15Q-4.8 -11.55 0 -11.55Q4.8 -11.55 8.2 -8.15Z" transform="matrix(0.03 0.03 -0.43 0.43 0 0)" fill-rule="evenodd" fill="rgb(255,255,0)" fill-opacity="1"/><path d="M8.2 -8.15Q11.55 -4.8 11.55 0Q11.55 4.8 8.2 8.2Q4.8 11.55 0 11.55Q-4.8 11.55 -8.15 8.2Q-11.55 4.8 -11.55 0Q-11.55 -4.8 -8.15 -8.15Q-4.8 -11.55 0 -11.55Q4.8 -11.55 8.2 -8.15Z" transform="matrix(-0.03 0.03 -0.43 -0.43 0 0)" fill-rule="evenodd" fill="rgb(255,255,0)" fill-opacity="1"/></svg>