<svg xmlns="http://www.w3.org/2000/svg" viewBox="-24.45 -45.05 50.6 59.55" width="50.6" height="59.55"><defs><linearGradient id="g1" gradientUnits="userSpaceOnUse" x1="-819.2" x2="819.2" gradientTransform="matrix(0 -0.01 0 0 8.6 -17.25)"><stop offset="0" stop-color="rgb(251,91,32)" stop-opacity="0.75"/><stop offset="1" stop-color="rgb(251,210,125)" stop-opacity="0.13"/></linearGradient><linearGradient id="g2" gradientUnits="userSpaceOnUse" x1="-819.2" x2="819.2" gradientTransform="matrix(0 0.01 -0.02 0 -0.7 19.3)"><stop offset="0" stop-color="rgb(251,91,32)" stop-opacity="0.75"/><stop offset="1" stop-color="rgb(251,210,125)" stop-opacity="0.13"/></linearGradient><linearGradient id="g3" gradientUnits="userSpaceOnUse" x1="-819.2" x2="819.2" gradientTransform="matrix(0 0 0 0 15.5 1.35)"><stop offset="0" stop-color="rgb(251,91,32)" stop-opacity="0.75"/><stop offset="1" stop-color="rgb(251,210,125)" stop-opacity="0.13"/></linearGradient><linearGradient id="g4" gradientUnits="userSpaceOnUse" x1="-819.2" x2="819.2" gradientTransform="matrix(0 0 0 0 8.6 -15.75)"><stop offset="0" stop-color="rgb(251,91,32)" stop-opacity="0.75"/><stop offset="1" stop-color="rgb(251,210,125)" stop-opacity="0.13"/></linearGradient><linearGradient id="g5" gradientUnits="userSpaceOnUse" x1="-819.2" x2="819.2" gradientTransform="matrix(0 0 0 0 0.9 -14.45)"><stop offset="0" stop-color="rgb(251,91,32)" stop-opacity="0.75"/><stop offset="1" stop-color="rgb(251,210,125)" stop-opacity="0.13"/></linearGradient><linearGradient id="g6" gradientUnits="userSpaceOnUse" x1="-819.2" x2="819.2" gradientTransform="matrix(0 0 0 0 -4.6 -14.5)"><stop offset="0" stop-color="rgb(251,91,32)" stop-opacity="0.75"/><stop offset="1" stop-color="rgb(251,210,125)" stop-opacity="0.13"/></linearGradient><linearGradient id="g7" gradientUnits="userSpaceOnUse" x1="-819.2" x2="819.2" gradientTransform="matrix(0 0 0 0 -4.45 1.55)"><stop offset="0" stop-color="rgb(251,91,32)" stop-opacity="0.75"/><stop offset="1" stop-color="rgb(251,210,125)" stop-opacity="0.13"/></linearGradient><linearGradient id="g8" gradientUnits="userSpaceOnUse" x1="-819.2" x2="819.2" gradientTransform="matrix(0 0 0 0 5.45 -3.25)"><stop offset="0" stop-color="rgb(251,91,32)" stop-opacity="0.75"/><stop offset="1" stop-color="rgb(251,210,125)" stop-opacity="0.13"/></linearGradient><linearGradient id="g9" gradientUnits="userSpaceOnUse" x1="-819.2" x2="819.2" gradientTransform="matrix(0 0 0 0 1.1 -1.9)"><stop offset="0" stop-color="rgb(251,91,32)" stop-opacity="0.75"/><stop offset="1" stop-color="rgb(251,210,125)" stop-opacity="0.13"/></linearGradient><linearGradient id="g10" gradientUnits="userSpaceOnUse" x1="-819.2" x2="819.2" gradientTransform="matrix(0 0 0 0 9.1 5.9)"><stop offset="0" stop-color="rgb(251,91,32)" stop-opacity="0.75"/><stop offset="1" stop-color="rgb(251,210,125)" stop-opacity="0.13"/></linearGradient><linearGradient id="g11" gradientUnits="userSpaceOnUse" x1="-819.2" x2="819.2" gradientTransform="matrix(0 -0.01 0.01 0 0.15 12.35)"><stop offset="0" stop-color="rgb(251,180,32)" stop-opacity="0.75"/><stop offset="1" stop-color="rgb(251,210,125)" stop-opacity="0.13"/></linearGradient></defs><path d="M-19.35 -43.05L21.05 -43.05Q24.15 -43.05 24.15 -39.95L24.15 9.35Q24.15 12.5 21.05 12.5L-19.35 12.5Q-22.45 12.5 -22.45 9.35L-22.45 -39.95Q-22.45 -43.05 -19.35 -43.05Z" transform="matrix(1 0 0 1 0 0)" fill-rule="evenodd" fill="rgb(255,255,255)" fill-opacity="0"/><path d="M6.55 -9.5L6.4 -10.3L6.9 -10.35L6.4 -10.35Q5.8 -15.4 9.7 -20.45Q10.9 -18.65 10.9 -16.8Q10.9 -14.95 10.25 -13.65L9.25 -11.9L7.4 -10.4L6.55 -9.5Z" transform="matrix(1 0 0 1 -0.45 -13.35)" fill-rule="evenodd" fill="url(#g1)"/><path d="M10.75 0.75Q12.25 3.75 12.25 8.4Q12.6 9 12.95 7.65Q13.3 8.85 13.9 9.85Q14.85 11.35 15.05 12.2Q15.75 15.3 14.85 17Q13.95 18.7 11.3 19.8Q8.7 20.95 6.05 20.1Q3.35 19.25 1.15 19.1Q-1.1 18.95 -5.95 19.95Q-10.8 20.95 -14.5 18.2Q-18.25 15.45 -16.6 11.15L-16.35 10.55L-15.55 9.2Q-15.1 8.55 -14.95 7.25Q-14.85 6.15 -15 5Q-14.5 5.35 -14.1 6.15L-13.25 6.95Q-11.8 6.75 -10.95 4.6Q-10.3 2.8 -10.4 0.75L-10.45 0Q-10.8 -1.75 -12.85 -0.9Q-13.35 -2.85 -11.65 -4.95Q-10.15 -6.3 -10.75 -9.1Q-7.3 -5.25 -7 0.2Q-6.9 -0.45 -6 -1.05L-5.7 -1.25Q-3.85 -2.8 -2.8 -5.35L-1.7 -3.95L-1.4 -3.45L-1.1 -2.75L-0.85 -1.9L-0.6 0.15Q1.85 -4.85 6.2 -7.05Q5.9 -5 7.45 -3.2L9.05 -1.55L10.7 0.55L10.75 0.75Z" transform="matrix(1 0 0 1 -0.45 -13.35)" fill-rule="evenodd" fill="url(#g2)"/><path d="M14.4 0.75L14.8 0.25Q15.55 -0.75 15.7 -2.05Q16.9 -0.7 17.05 0.75Q17.3 2.55 15.85 4.45Q13.95 5.7 13.6 6.5Q13 3.65 13.65 2.15L14.4 0.75Z" transform="matrix(1 0 0 1 -0.45 -13.35)" fill-rule="evenodd" fill="url(#g3)"/><path d="M6.4 -10.35L6.9 -10.35L6.4 -10.3L6.4 -10.35Z" transform="matrix(1 0 0 1 -0.45 -13.35)" fill-rule="evenodd" fill="url(#g4)"/><path d="M2.7 -12.8Q2.65 -11.05 1.45 -9.65Q-1.25 -9.75 -2.55 -6.7Q-3.4 -8.25 -2.35 -10.9Q-1.85 -12.3 -0.95 -13.35Q1.45 -15.9 1.75 -17.7Q2.95 -15.6 2.7 -12.8Z" transform="matrix(1 0 0 1 -0.45 -13.35)" fill-rule="evenodd" fill="url(#g5)"/><path d="M-4.7 -15.55Q-3.55 -14.35 -4.7 -12.8Q-5.45 -14.05 -4.7 -15.55Z" transform="matrix(1 0 0 1 -0.45 -13.35)" fill-rule="evenodd" fill="url(#g6)"/><path d="M-5.25 2.7L-4.95 1.8Q-4.75 1.55 -4.7 1.1Q-3.95 2.65 -4.75 4.1Q-5.45 3.95 -5.25 2.7Z" transform="matrix(1 0 0 1 -0.45 -13.35)" fill-rule="evenodd" fill="url(#g7)"/><path d="M5.65 -3.95L5.85 -3.3Q5.9 -2.2 5.25 -1.5Q4.85 -2.5 5.3 -4.75L5.65 -3.95Z" transform="matrix(1 0 0 1 -0.45 -13.35)" fill-rule="evenodd" fill="url(#g8)"/><path d="M1.65 -2.05L1.45 -0.65L0.8 0.25L0.65 -0.1Q0.5 -0.55 0.7 -1.45Q0.95 -2.5 1.55 -3.6Q1.35 -2.7 1.65 -2.05Z" transform="matrix(1 0 0 1 -0.45 -13.35)" fill-rule="evenodd" fill="url(#g9)"/><path d="M9.2 5.25Q9.8 6.35 8.45 7.7Q8.35 7.3 8.6 6.65L9.2 5.25Z" transform="matrix(1 0 0 1 -0.45 -13.35)" fill-rule="evenodd" fill="url(#g10)"/><path d="M7.9 11.85L8.85 11Q8.45 12.25 8.85 13.7Q8.85 16.2 7.7 17.35Q6.4 18.6 4.1 17.75Q2.75 17.05 1.65 16.75Q-0.45 16.2 -2.2 17.25Q-3.2 17.85 -4.65 18.1L-6.9 18Q-7.95 17.5 -8.2 16.7L-8.3 15.35L-8 14.6L-7.5 13.85L-7.5 13.8Q-7.1 12.35 -8.45 13.05Q-8.9 11.7 -7.9 10.3Q-6.8 9.2 -6.65 7.9Q-5.25 9.95 -4.1 7.4Q-2.7 9.6 -2.15 6.1L-2.15 6.05Q-1.9 4.7 -1.2 3.85Q-1.4 6 -0.1 6.7Q0.4 4.15 2.6 2.35Q4.7 4.15 4.5 6.25L4.5 6.3Q3.9 6.25 3.85 6.75Q3.8 7.25 4.4 7.7Q7.35 9.5 7.9 11.85Z" transform="matrix(1 0 0 1 -0.45 -13.35)" fill-rule="evenodd" fill="url(#g11)"/></svg>