<svg xmlns="http://www.w3.org/2000/svg" viewBox="-35 -20.05 65.7 42.1" width="65.7" height="42.1"><defs></defs><path d="M9.6 -8.4Q7.35 -15.3 5 -14.25L-11.3 10.8Q-15.15 12.6 -20.25 12.05Q-18.75 3.45 -22.65 -0.25Q-27.1 2.75 -31.1 1.7L-33 -3.8Q-30.3 2.05 -26.65 0.35L-26.35 0.2Q-21.55 -5.45 -19.15 2.9L-19.05 3.55Q-16.65 14.35 -12.15 7.75Q-0.6 -10.15 6.55 -17.15Q7.85 -14.45 8.8 -14.7Q15 -16.05 25.8 -0.15Q14.65 -13.2 9.6 -8.4Z" transform="matrix(1 0 0 1 0 0)" fill-rule="evenodd" fill="rgb(204,0,0)" fill-opacity="1"/><path d="M-18.4 -5.7Q-13 -9.05 -5.65 -18.05Q-3.6 -16.75 -1.55 -17.7Q-0.95 -11.85 -0.1 -9.2Q3.45 9.4 11.35 12.3Q17.95 10.45 23.55 2.4L15.15 16.6Q15.4 13.7 13.15 14.25Q7.2 16.5 0.75 9.55Q6.6 10.2 -1.5 -5L-1.5 -5.45Q-1.95 -13.95 -6.9 -14Q-16.5 -6.05 -15.85 2.5Q-19.7 -0.55 -20.95 8Q-25.7 10.95 -31.1 -2.45Q-26.7 7.7 -22.3 5.5Q-17 -1.85 -18.4 -5.7Z" transform="matrix(1 0 0 1 0 0)" fill-rule="evenodd" fill="rgb(49,5,54)" fill-opacity="1"/><path d="M51.3 8.2L57.35 10.75L55.6 11.65L54.5 12L36 15.7L24.5 13.5L34 11.3L23 8.7L33.85 5.45L51.3 8.25L51.3 8.2Z" transform="matrix(1 0 0 1 -28.65 -10.6)" fill-rule="evenodd" fill="rgb(255,255,255)" fill-opacity="1"/><path d="M55.6 11.65L37.25 21.2L12 13.4L0 12L11.05 9.95L32.3 0L51.3 8.2L32.55 2.05L12.75 10.4L28.6 11.8L10.6 12L35.15 18.55L54.5 12L55.6 11.65Z" transform="matrix(1 0 0 1 -28.65 -10.6)" fill-rule="evenodd" fill="rgb(172,74,215)" fill-opacity="1"/><path d="M32.55 2.05L51.3 8.2L51.3 8.25L33.85 5.45L23 8.7L34 11.3L24.5 13.5L36 15.7L54.5 12L35.15 18.55L10.6 12L28.6 11.8L12.75 10.4L32.55 2.05Z" transform="matrix(1 0 0 1 -28.65 -10.6)" fill-rule="evenodd" fill="rgb(255,255,51)" fill-opacity="1"/><path d="M-22.65 4.1Q-18.85 0.25 -20.6 -8.25Q-15.6 -9 -11.65 -7.25L5.35 17.25Q7.75 18.25 9.8 11.25Q15 15.85 25.75 2.55Q15.45 18.7 9.25 17.6Q8.25 17.35 7 20.05Q-0.35 13.35 -12.4 -4.15Q-17.15 -10.65 -19.15 0.2L-19.25 0.85Q-21.4 9.25 -26.4 3.8L-26.7 3.6Q-30.4 2.05 -32.95 8L-31.15 2.4Q-27.25 1.25 -22.65 4.1Z" transform="matrix(1 0 0 1 0 0)" fill-rule="evenodd" fill="rgb(230,119,219)" fill-opacity="1"/></svg>