<svg xmlns="http://www.w3.org/2000/svg" viewBox="-2 -2 35 35" width="35" height="35"><defs><linearGradient id="g1" gradientUnits="userSpaceOnUse" x1="-819.2" x2="819.2" gradientTransform="matrix(0 0 0.01 -0.01 15 17.55)"><stop offset="0" stop-color="rgb(158,158,158)" stop-opacity="1"/><stop offset="0.99" stop-color="rgb(204,204,204)" stop-opacity="1"/></linearGradient></defs><path d="M0 0L31 0L31 31L0 31L0 0Z" transform="matrix(1 0 0 1 0 0)" fill-rule="evenodd" fill="rgb(0,102,204)" fill-opacity="0"/><path d="M25.45 6.05L25.4 6.05Q23.9 4.4 21.75 3.4Q18.95 2.3 17.25 2.1L17.6 2.25L16.95 2Q12.35 0.95 8.2 3.4L7.9 3.6Q4.45 6 2.75 9.95L2.4 10.85L1.85 13.25Q0.95 17.75 3.15 21.8Q5.15 25.9 9.05 27.35L11 27.95L11.05 27.95L12.25 28.25L14.3 28.85L16.65 29.05L17.35 29Q20.1 28.65 22.7 27.05Q27.05 24.2 28.45 18.9Q29.95 13.6 27.6 8.95Q26.7 7.3 25.45 6.05ZM22.1 2.3Q24.55 3.35 26.2 5.15L26.25 5.25L27.3 6.35L28.6 8.3L28.6 8.35Q31.1 13.45 29.6 19.2L29.6 19.1Q28 24.85 23.3 27.9Q20.1 29.9 16.7 30.1L16.35 30.1L12.15 29.25L11.9 29.25L11.75 29.2L11.5 29.15L10.95 28.9L10.65 28.85L8.7 28.25L8.65 28.25Q4.4 26.75 2.15 22.2L2.2 22.25Q-0.45 17.45 1.05 11.85L1.05 11.8L1.1 11.55Q1.9 8.6 3.45 6.4Q4.8 4.5 6.6 3.1Q7.2 2.65 7.5 2.5L7.65 2.4Q12.15 -0.3 17.15 0.85Q19.25 1.2 22 2.25L22.1 2.3Z" transform="matrix(1 0 0 1 0 0)" fill-rule="evenodd" fill="rgb(138,138,138)" fill-opacity="1"/><path d="M25.4 6.05L25.45 6.05Q26.7 7.3 27.6 8.95Q29.95 13.6 28.45 18.9Q27.05 24.2 22.7 27.05Q20.1 28.65 17.35 29Q17.5 28.25 18.5 27.65L18.75 27.5L18.85 27.5L19.35 27.2Q27.65 22.2 26.95 14.1L26.3 10.75L24.8 7.1L24.8 6.85Q24.85 6.25 25.4 6.05Z" transform="matrix(1 0 0 1 0 0)" fill-rule="evenodd" fill="rgb(195,195,195)" fill-opacity="1"/><path d="M17.35 29L16.65 29.05L14.3 28.85L12.25 28.25L15.9 27.8Q17.7 27.3 19.4 26.2Q23.9 23.3 25.3 18.05Q26.7 12.7 24.25 8.05Q23.15 5.9 21.45 4.45L21.4 4.4Q20.15 3.35 18.75 2.7L17.6 2.25L17.25 2.1Q18.95 2.3 21.75 3.4Q23.9 4.4 25.4 6.05Q24.85 6.25 24.8 6.85L24.8 7.1L26.3 10.75L26.95 14.1Q27.65 22.2 19.35 27.2L18.85 27.5L18.75 27.5L18.5 27.65Q17.5 28.25 17.35 29Z" transform="matrix(1 0 0 1 0 0)" fill-rule="evenodd" fill="rgb(154,154,154)" fill-opacity="1"/><path d="M12.25 28.25L11.05 27.95L11 27.95L9.05 27.35Q7.15 26 5.95 23.9L5.15 22.35Q3 17.7 4.15 12.7L4.4 11.9Q5.1 9.15 8.05 6.1L8.15 6.05L8.15 6.4Q8.15 7.45 8.85 8.15Q9.7 8.95 10.75 8.95Q11.8 8.95 12.6 8.15Q13.4 7.45 13.4 6.4Q13.4 5.35 12.6 4.65Q11.85 4 10.85 3.9Q13.05 2.75 15.55 2.8L17.2 2.95L17.25 2.95L18.45 3.2Q20.3 3.75 21.4 4.4L21.45 4.45Q23.15 5.9 24.25 8.05Q26.7 12.7 25.3 18.05Q23.9 23.3 19.4 26.2Q17.7 27.3 15.9 27.8L12.25 28.25Z" transform="matrix(1 0 0 1 0 0)" fill-rule="evenodd" fill="rgb(229,229,229)" fill-opacity="1"/><path d="M9.05 27.35Q5.15 25.9 3.15 21.8Q0.95 17.75 1.85 13.25L2.4 10.85L2.75 9.95Q4.45 6 7.9 3.6L8.2 3.4Q12.35 0.95 16.95 2L17.6 2.25L18.75 2.7Q20.15 3.35 21.4 4.4Q20.3 3.75 18.45 3.2L17.25 2.95L17.2 2.95L15.55 2.8Q13.05 2.75 10.85 3.9Q11.85 4 12.6 4.65Q13.4 5.35 13.4 6.4Q13.4 7.45 12.6 8.15Q11.8 8.95 10.75 8.95Q9.7 8.95 8.85 8.15Q8.15 7.45 8.15 6.4L8.15 6.05L8.05 6.1Q5.1 9.15 4.4 11.9L4.15 12.7Q3 17.7 5.15 22.35L5.95 23.9Q7.15 26 9.05 27.35Z" transform="matrix(1 0 0 1 0 0)" fill-rule="evenodd" fill="rgb(255,255,255)" fill-opacity="1"/><path d="M8.3 20.8Q6.15 18.35 6.15 14.9Q6.15 11.45 8.3 9.1Q10.5 6.6 13.55 6.6Q16.7 6.6 18.9 9.1Q21.05 11.45 21.05 14.9Q21.05 18.35 18.9 20.8Q16.7 23.15 13.55 23.15Q10.5 23.15 8.3 20.8Z" transform="matrix(1 0 0 1 0 0)" fill-rule="evenodd" fill="rgb(193,193,193)" fill-opacity="1"/><path d="M20.5 11.75Q20.9 11.75 21.15 12L21.8 12.7L21.8 12.85L21.7 13.75L21.1 14.6L18.7 16.15L18.85 16.15L18.2 16.55L16.15 16.5L16.85 22.85L12.75 20.1L12.25 20.05L9.1 21.75L8 21.95Q7.65 21.95 7.3 21.65L6.9 20.85L6.75 20.45Q6.75 20.1 6.9 19.8L8.4 15.9L8.4 15.65L8.35 15.5L5.95 13.15Q5.65 12.85 5.6 12.25Q5.55 11.75 5.65 11.4L6.25 10.5L7.05 10.3L10.6 10.6L10.65 10.6L12.5 6.85L13 6.25Q13.55 5.85 14 5.85L14.3 5.9L14.9 6.3Q15.35 6.55 16.15 8.9Q16.95 11.3 17.3 11.25L20.5 11.75Z" transform="matrix(1 0 0 1 0 0)" fill-rule="evenodd" fill="rgb(149,149,149)" fill-opacity="1"/><path d="M7.55 19.55L7.8 18.75Q7.75 19.55 8.9 19.5Q9.5 19.4 9.85 19.1L12.25 17.9L12.45 17.85Q13.35 18.2 14.25 18.85L16.1 20.6Q17.85 21.65 17.35 19.4L17 15.55L17 15.45L18.35 14.6L19.8 13.5Q20.35 12.55 18.5 11.85L20.1 12.05Q20.65 12.05 20.9 12.35L21.45 12.95L21.45 13.1L21.35 13.95L20.75 14.7L18.3 16.4L18.3 16.7L19.05 20.95Q19.2 21.55 18.85 22L18.35 22.65L17.2 22.85Q16.65 22.85 16.4 22.6L12.95 19.8L12.5 19.75L9.6 21.4L8.6 21.55L7.9 21.25Q7.55 20.85 7.55 20.55L7.45 20.1L7.55 19.55Z" transform="matrix(1 0 0 1 0 0)" fill-rule="evenodd" fill="rgb(149,149,149)" fill-opacity="1"/><path d="M18.5 11.85Q20.35 12.55 19.8 13.5L18.35 14.6L17 15.45L17 15.55L17.35 19.4Q17.85 21.65 16.1 20.6L14.25 18.85Q13.35 18.2 12.45 17.85L12.25 17.9L9.85 19.1Q9.5 19.4 8.9 19.5Q7.75 19.55 7.8 18.75L8.9 15.95L8.9 15.7L8.85 15.55L6.7 13.45Q6.4 13.1 6.35 12.55Q6.3 12.05 6.4 11.75L6.9 10.95L7.7 10.75L10.95 11.05L11 11.05L12.7 7.6Q12.9 7.05 13.15 6.95Q13.65 6.65 14.05 6.65L14.85 7L15.4 7.8L16.2 11.25L16.4 11.5L16.4 11.6L16.45 11.65L18.5 11.85ZM12.55 10L11.65 12.05L8.5 11.75Q5.6 11.65 8.85 13.1L10.6 14.05L9.55 16.45Q7.9 19.5 10.4 17.15L12.55 15.35L15.15 17.55Q16.55 19.1 15.9 17.35L15.35 14.55L16.5 13.85Q21.25 12.65 16.1 12.65L14.4 12.35L14 9.3Q13.85 7.5 12.6 10L12.55 10ZM12.65 17.75L12.55 17.8L12.7 17.8L12.65 17.75Z" transform="matrix(1 0 0 1 0 0)" fill-rule="evenodd" fill="rgb(187,187,187)" fill-opacity="1"/><path d="M11.65 12.05L12.55 10L12.6 10Q13.85 7.5 14 9.3L14.4 12.35L16.1 12.65Q21.25 12.65 16.5 13.85L15.35 14.55L15.9 17.35Q16.55 19.1 15.15 17.55L12.55 15.35L10.4 17.15Q7.9 19.5 9.55 16.45L10.6 14.05L8.85 13.1Q5.6 11.65 8.5 11.75L11.65 12.05ZM11.6 13.5Q13.05 13.85 13.4 12.35L13.7 10.1Q13.55 9.65 13.1 10.1Q12.7 10.6 12.6 11.65Q12.45 12.65 10.4 12.35Q8.4 11.9 8.85 12.6Q9.2 13.25 11.6 13.5ZM13.1 9.35L13.05 9.35L13.05 9.4L13.1 9.35Z" transform="matrix(1 0 0 1 0 0)" fill-rule="evenodd" fill="rgb(217,217,217)" fill-opacity="1"/><path d="M13.4 12.35Q13.05 13.85 11.6 13.5Q9.2 13.25 8.85 12.6Q8.4 11.9 10.4 12.35Q12.45 12.65 12.6 11.65Q12.7 10.6 13.1 10.1Q13.55 9.65 13.7 10.1L13.4 12.35ZM13.05 9.35L13.1 9.35L13.05 9.4L13.05 9.35Z" transform="matrix(1 0 0 1 0 0)" fill-rule="evenodd" fill="rgb(255,255,255)" fill-opacity="1"/><path d="M12.55 17.8L12.65 17.75L12.7 17.8L12.55 17.8Z" transform="matrix(1 0 0 1 0 0)" fill-rule="evenodd" fill="url(#g1)"/></svg>