<svg xmlns="http://www.w3.org/2000/svg" viewBox="-15.78 -15.72 31.22 27.54" width="31.22" height="27.54"><defs></defs><path d="M20.95 6.6L20.7 6.25L20.65 6.2Q17.85 3.1 11.65 2.35Q5 3.2 2.8 6.2L2.7 6.3L2.5 6.65Q2.7 10.05 3.6 13Q4.4 15.65 5.85 17.9L5.95 18.05L6.05 18.2Q11.75 24.9 17.45 18.2Q20 14.2 20.7 9.6L20.85 8.35L20.95 6.6ZM22.5 6.3Q22.3 13.5 18.4 19.5Q11.75 27.3 5.05 19.5Q1.35 14.1 0.95 6.25L0.9 6.1Q3.4 2.2 11.65 1.15Q19.3 2.05 22.5 6.1L22.5 6.2L22.5 6.3ZM5.95 17.35Q6.1 17.35 6.65 17.8Q7.2 18.2 9.1 19Q11 19.8 13.45 18.3Q15.85 16.85 18 14.15Q20.1 11.45 20.7 8.9Q20 13.5 17.45 17.55Q11.75 24.25 6.05 17.55L5.95 17.35Z" transform="matrix(1.12 0 0 1.12 -13.2 -13.53)" fill-rule="evenodd" fill="rgb(128,101,72)" fill-opacity="1"/><path d="M20.7 6.25L20.95 6.6L20.85 8.35L20.7 9.6Q20 14.2 17.45 18.2Q11.75 24.9 6.05 18.2L5.95 18.05L5.85 17.9Q4.4 15.65 3.6 13Q3.6 12.55 3.9 12.25L4.05 12Q4.55 10.95 5.35 9.95L5.65 9.55L7 8.4L8.35 7.45L8.9 7.2Q9.2 6.95 9.5 6.8L10.8 6.3L11.1 6.3L11.5 6.2L12.3 6.1L12.9 6L13.4 5.9L16.95 5.5L18.15 5.55L18.45 5.65L19.6 6.1L20.45 6.2L20.7 6.25ZM6.65 17.8Q6.1 17.35 5.95 17.35L6.05 17.55Q11.75 24.25 17.45 17.55Q20 13.5 20.7 8.9Q20.1 11.45 18 14.15Q15.85 16.85 13.45 18.3Q11 19.8 9.1 19Q7.2 18.2 6.65 17.8Z" transform="matrix(1.12 0 0 1.12 -13.2 -13.53)" fill-rule="evenodd" fill="rgb(51,0,102)" fill-opacity="1"/><path d="M3.6 13Q2.7 10.05 2.5 6.65L2.7 6.3L2.8 6.2Q5 3.2 11.65 2.35Q17.85 3.1 20.65 6.2L20.7 6.25L20.45 6.2L19.6 6.1L18.45 5.65L18.15 5.55L16.95 5.5L13.4 5.9L12.9 6L12.3 6.1L11.5 6.2L11.1 6.3L10.8 6.3L9.5 6.8Q9.2 6.95 8.9 7.2L8.35 7.45L7 8.4L5.65 9.55L5.35 9.95Q4.55 10.95 4.05 12L3.9 12.25Q3.6 12.55 3.6 13Z" transform="matrix(1.12 0 0 1.12 -13.2 -13.53)" fill-rule="evenodd" fill="rgb(81,0,162)" fill-opacity="1"/><path d="M20.7 6.25L20.95 6.6L20.85 8.35L20.7 9.6Q20 14.2 17.45 18.2Q11.75 24.9 6.05 18.2L5.95 18.05L5.85 17.9Q4.4 15.65 3.6 13Q2.7 10.05 2.5 6.65L2.7 6.3L2.8 6.2Q5 3.2 11.65 2.35Q17.85 3.1 20.65 6.2L20.7 6.25" transform="matrix(1.12 0 0 1.12 -13.2 -13.53)" fill="none" stroke="rgb(51,51,51)" stroke-opacity="1" stroke-width="1" stroke-linecap="round" stroke-linejoin="round"/><path d="M23.15 5.75L23.15 5.9L23.15 6Q22.95 13.65 18.8 20.1Q11.75 28.4 4.6 20.1Q0.65 14.35 0.2 5.95L0.15 5.75Q2.8 1.65 11.65 0.5Q19.75 1.45 23.15 5.75" transform="matrix(1.12 0 0 1.12 -13.2 -13.53)" fill="none" stroke="rgb(51,51,51)" stroke-opacity="1" stroke-width="1.5" stroke-linecap="round" stroke-linejoin="round"/><path d="M28.15 -0.85L39 -6.25L33.05 4.3L40.95 7.95L32.9 11.5L38.35 22.4L27.7 16.45L24.05 24.2L20.55 16.3L9.7 21.7L15.55 11.05L7.25 7.15L15.75 3.9L10.35 -6.95L20.95 -1.05L24.65 -8.55L28.15 -0.85ZM22.2 12.5L24.1 19.1L26.25 12.6L32.25 15.95L29.15 9.8L35.75 7.95L29.25 5.75L32.6 -0.2L26.5 2.85L24.65 -3.7L22.45 2.75L16.5 -0.55L19.5 5.55L12.95 7.4L19.4 9.55L16.1 15.55L22.2 12.5Z" transform="matrix(-0.49 0 0 -0.49 11.23 2.3)" fill-rule="evenodd" fill="rgb(255,255,153)" fill-opacity="1"/><path d="M24.1 19.1L22.2 12.5L16.1 15.55L19.4 9.55L12.95 7.4L19.5 5.55L16.5 -0.55L22.45 2.75L24.65 -3.7L26.5 2.85L32.6 -0.2L29.25 5.75L35.75 7.95L29.15 9.8L32.25 15.95L26.25 12.6L24.1 19.1Z" transform="matrix(-0.49 0 0 -0.49 11.23 2.3)" fill-rule="evenodd" fill="rgb(255,255,255)" fill-opacity="1"/><path d="M24.05 9.5L18 26.9L20.95 8.45L0.2 18.65L19.65 7.1L2.1 -1.05L21.25 6.05L15.05 -8.85Q18.1 -3.45 22.9 4.6L30.15 -15.4L26.6 3.8L48 -7.45L26.35 6.5L45.6 11.65L25.9 9.05L30.7 17.75L24.05 9.5Z" transform="matrix(-0.49 0 0 -0.49 11.23 2.3)" fill-rule="evenodd" fill="rgb(255,255,0)" fill-opacity="1"/></svg>